# xmcd
#
# Track frame offsets:
#	150
#	15502
#	31025
#	52295
#	64667
#	79227
#	92310
#	116867
#	130807
#	142455
#	160897
#	176257
#	189345
#
# Disc length: 2803 seconds
#
# Revision: 0
# Processed by: cddbd v1.5.2PL0 Copyright (c) Steve Scherf et al.
# Submitted via: dBpowerAMP V4.0
#
DISCID=ab0af10d
DTITLE=Marvin Gaye - Love Songs: Bedroom Ballads
DYEAR=2002
DGENRE=Soul
TTITLE0=Why Did I Choose You
TTITLE1=She Needs Me
TTITLE2=You Sure Love To Ball
TTITLE3=Funny, Not Much
TTITLE4=Soon I'll Be Loving You Again
TTITLE5=This Will Make You Laugh
TTITLE6=Funk Me
TTITLE7=The Shadow Of Your Smile (Previously Unrealeased Alternate Vocal)
TTITLE8=I Wish I Didn't Love You So
TTITLE9=Since I Had You
TTITLE10=Feel All My Love Inside
TTITLE11=I Won't Cry Anymore
TTITLE12=Falling In Love Again
EXTD=
EXTT0=
EXTT1=
EXTT2=
EXTT3=
EXTT4=
EXTT5=
EXTT6=
EXTT7=
EXTT8=
EXTT9=
EXTT10=
EXTT11=
EXTT12=
PLAYORDER=
